<svg id="Layer_1" data-name="Layer 1" xmlns="http://www.w3.org/2000/svg" viewBox="0 0 368.07 418.25"><defs><style>.cls-1{fill:#e8e7e6;}.cls-2{fill:#d1d1d1;}.cls-3{fill:#a55621;}.cls-4{fill:#bf6a30;}</style></defs><title>mushroom</title><path class="cls-1" d="M256,465.12a74.34,74.34,0,0,1-73-60.18,74.42,74.42,0,0,1-.87-22.41l9.21-111.84,1.68-20.5H319l1.69,20.5,9.19,111.84A74.3,74.3,0,0,1,256,465.12Z" transform="translate(-71.97 -46.88)"/><path class="cls-2" d="M319,250.19H193l-1.68,20.5h0l-9.22,111.84a76.93,76.93,0,0,0-.47,8.39,72.92,72.92,0,0,0,1.35,14,74.34,74.34,0,0,0,73,60.18c-18.9,0-34.33-26.23-37.73-60.18-.45-4.54-.69-9.24-.69-14,0-2.76.08-5.57.25-8.39l3.61-84.73a25,25,0,0,1,25.22-23.93q4.64.06,9.33.06c15.64,0,30.81-.47,45.3-1.5q8.87-.63,17.39-1.52l2-.22Z" transform="translate(-71.97 -46.88)"/><path class="cls-3" d="M440,181.45c0,46.24-50.57,68.6-121.36,76.14q-8.51.89-17.39,1.52c-14.48,1-29.66,1.5-45.29,1.5a600.29,600.29,0,0,1-62.66-3C122.54,250.05,72,227.69,72,181.45c0-18,7.7-37.63,21.3-56.13,30.85-42,92.14-78.44,162.72-78.44a206.84,206.84,0,0,1,45.29,5,213.55,213.55,0,0,1,54.56,20.32C406.51,99.42,440,143.8,440,181.45Z" transform="translate(-71.97 -46.88)"/><path class="cls-4" d="M440,181.45c0,46.24-50.57,68.6-121.36,76.14q-8.51.89-17.39,1.52c-5.91-.42-11.72-.93-17.39-1.52-70.78-7.54-121.36-29.9-121.36-76.14,0-18,7.7-37.63,21.3-56.13,24-32.72,66.5-62,117.45-73.41a213.55,213.55,0,0,1,54.56,20.32C406.51,99.42,440,143.8,440,181.45Z" transform="translate(-71.97 -46.88)"/></svg>